HIERARCHY
ROOT Joint1
{
	OFFSET 0.000000 0.000000 0.000000
	CHANNELS 6 Xposition Yposition Zposition Xrotation Yrotation Zrotation
	JOINT Joint2
	{
		OFFSET -0.000000 0.000000 1.456275
		CHANNELS 6 Xposition Yposition Zposition Xrotation Yrotation Zrotation
		JOINT Joint3
		{
			OFFSET -0.000000 0.000002 1.471446
			CHANNELS 6 Xposition Yposition Zposition Xrotation Yrotation Zrotation
			JOINT Joint4
			{
				OFFSET 0.625745 0.000000 0.917755
				CHANNELS 6 Xposition Yposition Zposition Xrotation Yrotation Zrotation
				JOINT Joint5
				{
					OFFSET -0.629534 0.000001 0.940221
					CHANNELS 6 Xposition Yposition Zposition Xrotation Yrotation Zrotation
					JOINT Joint6
					{
						OFFSET -0.000001 0.113772 1.960660
						CHANNELS 6 Xposition Yposition Zposition Xrotation Yrotation Zrotation
						JOINT Joint7
						{
							OFFSET -0.669733 -0.113771 0.388340
							CHANNELS 6 Xposition Yposition Zposition Xrotation Yrotation Zrotation
							End Site
							{
								OFFSET 0.005509 0.005509 0.438980
							}
						}
					}
				}
			}
		}
	}
}
MOTION
Frames: 29
Frame Time: 0.041667
0.000000 0.000000 0.000000 -0.000000 1.019410 -35.828218 -0.000000 0.000000 1.456275 -0.000000 -5.597695 -0.000001 -0.000000 0.000002 1.471446 -0.000002 -1.133456 49.801074 0.625745 0.000000 0.917755 0.000009 110.238317 -0.000003 -0.629534 0.000001 0.940221 0.000000 1.709734 -27.730698 -0.000001 0.113772 1.960661 -88.303834 94.913081 0.000008 -0.669734 -0.113771 0.388340 -0.338278 3.497649 113.830075 
0.000000 0.000000 0.000000 -0.000000 1.019410 -36.914017 -0.000000 -0.000000 1.456275 -0.000000 -4.404177 0.000003 -0.000000 0.000002 1.471446 -0.000002 -1.133456 51.311301 0.625744 0.000000 0.917754 0.000007 109.487256 -0.000005 -0.629534 0.000001 0.940221 0.000001 1.709736 -28.570575 -0.000001 0.113772 1.960660 -88.303848 95.062791 0.000022 -0.669733 -0.113771 0.388340 -0.327691 3.493488 113.189376 
0.000000 0.000000 0.000000 -0.000000 1.019410 -37.999747 -0.000000 -0.000000 1.456275 0.000000 -3.210743 0.000001 -0.000000 0.000002 1.471445 -0.000002 -1.133456 52.821418 0.625745 0.000000 0.917755 0.000011 108.736243 0.000001 -0.629533 0.000001 0.940221 0.000000 1.709737 -29.410398 -0.000000 0.113772 1.960660 -88.303848 95.212502 0.000021 -0.669734 -0.113771 0.388341 -0.317148 3.489212 112.548738 
0.000000 0.000000 0.000000 -0.000000 1.019410 -39.085081 -0.000000 0.000000 1.456275 -0.000000 -2.017734 -0.000001 -0.000000 0.000002 1.471446 -0.000002 -1.133455 54.331006 0.625744 0.000000 0.917755 0.000009 107.985503 -0.000006 -0.629534 0.000001 0.940221 0.000000 1.709736 -30.249917 -0.000001 0.113772 1.960661 -88.303862 95.362145 0.000039 -0.669734 -0.113771 0.388340 -0.306660 3.484817 111.908326 
0.000000 0.000000 0.000000 -0.000000 1.019410 -40.169954 -0.000000 0.000000 1.456275 0.000000 -0.825236 0.000003 -0.000000 0.000002 1.471446 -0.000002 -1.133455 55.839938 0.625744 0.000000 0.917755 0.000003 107.235083 0.000000 -0.629534 0.000001 0.940221 0.000002 1.709736 -31.089078 -0.000001 0.113772 1.960661 -88.303855 95.511740 0.000020 -0.669733 -0.113771 0.388339 -0.296224 3.480302 111.268194 
0.000000 0.000000 0.000000 -0.000000 1.019410 -41.255217 -0.000000 -0.000000 1.456275 -0.000000 0.367687 0.000003 -0.000000 0.000002 1.471445 -0.000002 -1.133455 57.349410 0.625745 0.000000 0.917755 0.000002 106.484405 0.000003 -0.629534 0.000001 0.940221 0.000002 1.709737 -31.928535 -0.000001 0.113772 1.960661 -88.303841 95.661376 0.000002 -0.669734 -0.113771 0.388340 -0.285838 3.475678 110.627843 
0.000000 0.000000 0.000000 -0.000000 1.019410 -42.341948 0.000000 0.000000 1.456275 -0.000000 1.562228 -0.000001 -0.000000 0.000002 1.471445 -0.000002 -1.133455 58.860938 0.625744 0.000000 0.917755 0.000009 105.732701 0.000007 -0.629534 0.000001 0.940221 0.000001 1.709737 -32.769141 -0.000001 0.113772 1.960660 -88.303875 95.811223 0.000019 -0.669733 -0.113771 0.388340 -0.275490 3.470928 109.986625 
0.000000 0.000000 0.000000 -0.000000 1.019410 -43.430383 -0.000000 -0.000000 1.456275 -0.000000 2.758640 0.000001 -0.000000 0.000002 1.471446 -0.000002 -1.133455 60.374822 0.625745 0.000000 0.917755 0.000008 104.979823 -0.000008 -0.629533 0.000001 0.940221 0.000001 1.709737 -33.611054 -0.000001 0.113772 1.960661 -88.303868 95.961296 0.000011 -0.669734 -0.113771 0.388340 -0.265179 3.466057 109.344396 
0.000000 0.000000 0.000000 -0.000000 1.019410 -44.517346 -0.000000 0.000000 1.456275 -0.000000 3.953435 0.000001 -0.000000 0.000002 1.471446 -0.000003 -1.133455 61.886671 0.625745 0.000000 0.917755 0.000004 104.227956 -0.000005 -0.629533 0.000001 0.940221 -0.000001 1.709737 -34.451826 -0.000001 0.113772 1.960661 -88.303848 96.111171 0.000022 -0.669733 -0.113771 0.388340 -0.254940 3.461074 108.703048 
0.000000 0.000000 0.000000 -0.000000 1.019410 -45.598814 -0.000000 0.000000 1.456275 -0.000000 5.142189 -0.000000 -0.000000 0.000002 1.471445 -0.000003 -1.133455 63.390870 0.625745 0.000000 0.917755 0.000017 103.479893 -0.000008 -0.629533 0.000001 0.940221 0.000002 1.709737 -35.288353 -0.000001 0.113772 1.960661 -88.303862 96.260288 0.000006 -0.669733 -0.113771 0.388340 -0.244805 3.456001 108.064944 
0.000000 0.000000 0.000000 -0.000000 1.019410 -46.673934 -0.000000 0.000000 1.456275 -0.000000 6.323967 -0.000001 -0.000000 0.000002 1.471446 -0.000003 -1.133455 64.886244 0.625744 0.000000 0.917755 -0.000003 102.736222 -0.000001 -0.629533 0.000001 0.940221 0.000003 1.709736 -36.119970 -0.000001 0.113772 1.960661 -88.303868 96.408523 0.000021 -0.669733 -0.113771 0.388340 -0.234788 3.450860 107.430597 
0.000000 0.000000 0.000000 -0.000000 1.019410 -47.754552 -0.000000 0.000000 1.456275 -0.000000 7.511786 0.000000 -0.000000 0.000002 1.471446 -0.000003 -1.133455 66.389261 0.625745 0.000000 0.917755 0.000004 101.988740 -0.000007 -0.629534 0.000001 0.940221 -0.000000 1.709738 -36.955835 -0.000001 0.113772 1.960661 -88.303855 96.557531 0.000006 -0.669733 -0.113771 0.388339 -0.224780 3.445570 106.792999 
0.000000 0.000000 0.000000 -0.000000 1.019410 -48.855684 -0.000000 -0.000000 1.456275 0.000000 8.722150 0.000001 -0.000000 0.000002 1.471446 -0.000003 -1.133455 67.920801 0.625745 0.000000 0.917755 0.000012 101.227078 -0.000007 -0.629533 0.000001 0.940221 -0.000001 1.709737 -37.807573 -0.000001 0.113772 1.960660 -88.303862 96.709359 0.000022 -0.669733 -0.113771 0.388340 -0.214639 3.440067 106.143305 
0.000000 0.000000 0.000000 -0.000000 1.019410 -49.980493 -0.000000 0.000000 1.456275 -0.000001 9.958549 -0.000001 -0.000000 0.000002 1.471446 -0.000003 -1.133455 69.485290 0.625745 0.000000 0.917755 0.000010 100.449031 0.000006 -0.629534 0.000001 0.940221 0.000001 1.709736 -38.677626 -0.000001 0.113772 1.960660 -88.303855 96.864452 0.000020 -0.669733 -0.113771 0.388340 -0.204348 3.434326 105.479656 
0.000000 0.000000 0.000000 -0.000000 1.019410 -51.084795 -0.000000 -0.000000 1.456275 -0.000000 11.172406 0.000002 -0.000000 0.000002 1.471445 -0.000004 -1.133454 71.021256 0.625744 0.000000 0.917755 0.000002 99.685170 0.000006 -0.629534 0.000001 0.940221 0.000000 1.709734 -39.531817 -0.000001 0.113772 1.960660 -88.303868 97.016710 0.000007 -0.669733 -0.113771 0.388341 -0.194307 3.428576 104.828104 
0.000000 0.000000 0.000000 -0.000000 1.019410 -52.112547 -0.000000 -0.000000 1.456275 0.000000 12.302112 -0.000001 -0.000000 0.000002 1.471445 -0.000004 -1.133456 72.450733 0.625745 0.000000 0.917755 0.000001 98.974270 0.000006 -0.629533 0.000001 0.940221 0.000000 1.709736 -40.326782 -0.000001 0.113773 1.960660 -88.303855 97.158423 0.000015 -0.669733 -0.113771 0.388340 -0.185027 3.423126 104.221727 
0.000000 0.000000 0.000000 -0.000000 1.019410 -53.023834 -0.000000 0.000000 1.456275 0.000000 13.303799 -0.000001 -0.000000 0.000002 1.471446 -0.000004 -1.133455 73.718232 0.625745 0.000000 0.917755 -0.000005 98.343932 0.000011 -0.629534 0.000001 0.940221 -0.000004 1.709737 -41.031672 -0.000000 0.113772 1.960661 -88.303841 97.284071 0.000003 -0.669733 -0.113772 0.388340 -0.176843 3.418204 103.684054 
0.000000 0.000000 0.000000 -0.000000 1.019410 -53.843259 -0.000000 -0.000000 1.456275 -0.000000 14.204513 0.000001 -0.000000 0.000002 1.471445 -0.000004 -1.133454 74.857944 0.625744 0.000000 0.917755 0.000011 97.777122 0.000010 -0.629534 0.000001 0.940221 -0.000001 1.709735 -41.665506 -0.000001 0.113772 1.960660 -88.303862 97.397056 0.000007 -0.669733 -0.113771 0.388340 -0.169528 3.413720 103.200607 
0.000000 0.000000 0.000000 -0.000000 1.019410 -54.611542 -0.000000 -0.000000 1.456275 -0.000001 15.049014 0.000001 -0.000000 0.000002 1.471445 -0.000004 -1.133457 75.926548 0.625745 0.000000 0.917755 0.000013 97.245686 0.000010 -0.629534 0.000001 0.940221 -0.000000 1.709736 -42.259784 -0.000001 0.113772 1.960660 -88.303855 97.502993 0.000013 -0.669733 -0.113771 0.388340 -0.162702 3.409459 102.747321 
0.000000 0.000000 0.000000 -0.000000 1.019410 -55.369417 -0.000000 0.000000 1.456275 -0.000000 15.882077 0.000001 -0.000000 0.000002 1.471446 -0.000003 -1.133455 76.980665 0.625745 0.000000 0.917755 0.000022 96.721448 0.000015 -0.629533 0.000001 0.940220 0.000000 1.709737 -42.846005 -0.000001 0.113772 1.960660 -88.303868 97.607495 0.000012 -0.669733 -0.113771 0.388340 -0.156001 3.405202 102.300176 
0.000000 0.000000 0.000000 -0.000000 1.019410 -56.150032 -0.000000 -0.000000 1.456275 -0.000001 16.740124 -0.000002 -0.000000 0.000002 1.471445 -0.000003 -1.133454 78.066412 0.625744 0.000000 0.917755 0.000012 96.181494 -0.000015 -0.629534 0.000001 0.940221 0.000001 1.709738 -43.449822 -0.000000 0.113772 1.960660 -88.303875 97.715131 0.000012 -0.669733 -0.113771 0.388340 -0.149132 3.400759 101.839623 
0.000000 0.000000 0.000000 -0.000000 1.019410 -56.956217 -0.000000 0.000000 1.456275 0.000001 17.626283 -0.000001 -0.000000 0.000002 1.471446 -0.000005 -1.133457 79.187724 0.625744 0.000000 0.917754 0.000022 95.623844 -0.000014 -0.629533 0.000001 0.940221 0.000001 1.709737 -44.073411 -0.000001 0.113772 1.960661 -88.303868 97.826279 0.000008 -0.669733 -0.113771 0.388340 -0.142082 3.396121 101.363976 
0.000000 0.000000 0.000000 -0.000000 1.019410 -57.783209 -0.000000 0.000000 1.456275 -0.000000 18.535332 -0.000003 -0.000000 0.000002 1.471446 -0.000004 -1.133454 80.337990 0.625744 0.000000 0.917755 0.000022 95.051802 0.000012 -0.629534 0.000001 0.940221 0.000001 1.709736 -44.713103 -0.000000 0.113772 1.960660 -88.303862 97.940302 0.000002 -0.669734 -0.113771 0.388341 -0.134885 3.391298 100.876068 
0.000000 0.000000 0.000000 -0.000000 1.019410 -58.626280 -0.000000 0.000000 1.456275 0.000001 19.462035 0.000000 -0.000000 0.000002 1.471445 -0.000005 -1.133458 81.510603 0.625745 0.000000 0.917755 0.000019 94.468647 -0.000007 -0.629533 0.000001 0.940221 -0.000000 1.709738 -45.365225 -0.000001 0.113772 1.960660 -88.303875 98.056552 0.000011 -0.669734 -0.113771 0.388340 -0.127592 3.386321 100.378680 
0.000000 0.000000 0.000000 -0.000000 1.019410 -59.477841 -0.000000 0.000000 1.456275 0.000002 20.398073 -0.000001 -0.000000 0.000002 1.471446 -0.000005 -1.133453 82.695026 0.625745 0.000001 0.917755 0.000060 93.879618 -0.000002 -0.629533 0.000001 0.940221 -0.000001 1.709736 -46.023911 -0.000001 0.113772 1.960660 -88.303855 98.173970 0.000014 -0.669734 -0.113771 0.388340 -0.120270 3.381224 99.876285 
0.000000 0.000000 0.000000 -0.000000 1.019410 -60.318985 -0.000000 -0.000000 1.456275 -0.000000 21.322664 -0.000000 -0.000000 0.000002 1.471445 -0.000004 -1.133459 83.864969 0.625745 0.000000 0.917755 0.000040 93.297789 0.000011 -0.629533 0.000001 0.940221 0.000000 1.709737 -46.674548 -0.000001 0.113772 1.960660 -88.303875 98.289953 0.000011 -0.669733 -0.113771 0.388341 -0.113083 3.376126 99.380024 
0.000000 0.000000 0.000000 -0.000000 1.019410 -61.127994 -0.000000 0.000000 1.456275 -0.000001 22.211932 -0.000002 -0.000000 0.000002 1.471446 -0.000005 -1.133456 84.990209 0.625745 0.000001 0.917755 0.000022 92.738178 -0.000020 -0.629533 0.000001 0.940221 0.000001 1.709736 -47.300327 -0.000001 0.113772 1.960661 -88.303875 98.401511 0.000005 -0.669733 -0.113771 0.388339 -0.106213 3.371174 98.902731 
0.000000 0.000000 0.000000 -0.000000 1.019410 -61.883146 -0.000000 0.000000 1.456275 -0.000000 23.041995 -0.000001 -0.000000 0.000002 1.471445 -0.000004 -1.133455 86.040535 0.625745 0.000001 0.917755 0.000044 92.215839 -0.000044 -0.629534 0.000001 0.940221 0.000002 1.709735 -47.884441 -0.000001 0.113772 1.960660 -88.303855 98.505630 0.000016 -0.669733 -0.113771 0.388340 -0.099837 3.366494 98.457225 
0.000000 0.000000 0.000000 -0.000000 1.019410 -62.567675 -0.000000 0.000000 1.456275 -0.000001 23.794434 -0.000002 -0.000000 0.000002 1.471446 -0.000005 -1.133452 86.992636 0.625745 0.000000 0.917755 0.000034 91.742343 -0.000081 -0.629533 0.000001 0.940221 -0.000001 1.709736 -48.413931 -0.000001 0.113772 1.960660 -88.303868 98.600010 0.000013 -0.669733 -0.113771 0.388341 -0.094088 3.362210 98.053383 
